<svg xmlns="http://www.w3.org/2000/svg" xmlns:xlink="http://www.w3.org/1999/xlink" width="52.209" height="51.056" viewBox="0 0 52.209 51.056">
  <defs>
    <filter id="Path_3" x="0" y="0" width="52.209" height="51.056" filterUnits="userSpaceOnUse">
      <feOffset dy="3" input="SourceAlpha"/>
      <feGaussianBlur stdDeviation="3" result="blur"/>
      <feFlood flood-color="#cc9326" flood-opacity="0.161"/>
      <feComposite operator="in" in2="blur"/>
      <feComposite in="SourceGraphic"/>
    </filter>
    <radialGradient id="radial-gradient" cx="0.437" cy="0.243" r="0.787" gradientTransform="translate(0.019) scale(0.963 1)" gradientUnits="objectBoundingBox">
      <stop offset="0" stop-color="#ffff15"/>
      <stop offset="1" stop-color="#ffc800"/>
    </radialGradient>
    <filter id="_500" x="5.842" y="5.86" width="40.41" height="41.281" filterUnits="userSpaceOnUse">
      <feOffset dy="3" input="SourceAlpha"/>
      <feGaussianBlur stdDeviation="3" result="blur-2"/>
      <feFlood flood-opacity="0.161"/>
      <feComposite operator="in" in2="blur-2"/>
      <feComposite in="SourceGraphic"/>
    </filter>
  </defs>
  <g id="Group_72" data-name="Group 72" transform="translate(-326.953 -240)">
    <g id="Group_19" data-name="Group 19" transform="translate(1.645 1.461)">
      <g transform="matrix(1, 0, 0, 1, 325.31, 238.54)" filter="url(#Path_3)">
        <path id="Path_3-2" data-name="Path 3" d="M679.5,976.54l1.836,3.826a3.552,3.552,0,0,0,2.73,1.984l4.206.563a3.551,3.551,0,0,1,1.979,6.09l-3.072,2.928a3.551,3.551,0,0,0-1.043,3.21l.764,4.174a3.551,3.551,0,0,1-5.181,3.764l-3.734-2.016a3.55,3.55,0,0,0-3.375,0l-3.734,2.016a3.551,3.551,0,0,1-5.181-3.764l.764-4.174a3.551,3.551,0,0,0-1.043-3.21L662.35,989a3.551,3.551,0,0,1,1.979-6.09l4.206-.563a3.552,3.552,0,0,0,2.731-1.984l1.835-3.826A3.551,3.551,0,0,1,679.5,976.54Z" transform="translate(-650.2 -966.53)" fill="#e4e4e4" stroke="#fef984" stroke-width="4"/>
      </g>
      <path id="Path_1" data-name="Path 1" d="M679.5,976.54l1.836,3.826a3.552,3.552,0,0,0,2.73,1.984l4.206.563a3.551,3.551,0,0,1,1.979,6.09l-3.072,2.928a3.551,3.551,0,0,0-1.043,3.21l.764,4.174a3.551,3.551,0,0,1-5.181,3.764l-3.734-2.016a3.55,3.55,0,0,0-3.375,0l-3.734,2.016a3.551,3.551,0,0,1-5.181-3.764l.764-4.174a3.551,3.551,0,0,0-1.043-3.21L662.35,989a3.551,3.551,0,0,1,1.979-6.09l4.206-.563a3.552,3.552,0,0,0,2.731-1.984l1.835-3.826A3.551,3.551,0,0,1,679.5,976.54Z" transform="translate(-324.89 -727.986)" fill="url(#radial-gradient)"/>
    </g>
    <g id="Group_20" data-name="Group 20" transform="translate(-31.954 41.258) rotate(-7)">
      <g transform="matrix(0.99, 0.12, -0.12, 0.99, 332.01, 241)" filter="url(#_500)">
        <text id="_500-2" data-name="500" transform="translate(18.53 27.95) rotate(-7)" fill="#0170c0" stroke="#fff" stroke-linecap="round" stroke-linejoin="round" stroke-width="2" font-size="14" font-family="DBHeavent-Bold, DB Heavent" font-weight="700"><tspan x="0" y="0">500</tspan></text>
      </g>
      <text id="_500-3" data-name="500" transform="translate(347 271)" fill="#0170c0" font-size="14" font-family="DBHeavent-Bold, DB Heavent" font-weight="700"><tspan x="0" y="0">500</tspan></text>
    </g>
  </g>
</svg>
